<svg xmlns="http://www.w3.org/2000/svg" width="439" height="170" fill="none" style="-webkit-print-color-adjust:exact"><defs><clipPath id="a" class="frame-clip"><rect width="439" height="170" rx="0" ry="0" style="fill:#fff;fill-opacity:1"/></clipPath></defs><g clip-path="url(#a)"><rect width="439" height="170" class="frame-background" rx="0" ry="0" style="fill:#fff;fill-opacity:1"/><g class="frame-children"><g style="fill:#000"><path d="M.282 36h1.436c.155 0 .282.116.282.259v10.483c0 .142-.127.258-.282.258H.282C.127 47 0 46.884 0 46.742V36.259C0 36.116.127 36 .282 36ZM.282 50h1.436c.155 0 .282.117.282.259v10.482c0 .143-.127.259-.282.259H.282C.127 61 0 60.884 0 60.741V50.259C0 50.117.127 50 .282 50ZM.282 25h1.436c.155 0 .282.127.282.282v5.436a.283.283 0 0 1-.282.282H.282A.283.283 0 0 1 0 30.718v-5.436C0 25.127.127 25 .282 25Z" style="fill-rule:evenodd;stroke:none;fill:#959ca4;fill-opacity:1"/><path d="M81.282 36h1.436c.155 0 .282.116.282.259v10.483c0 .142-.127.258-.282.258h-1.436c-.156 0-.282-.116-.282-.258V36.259c0-.143.126-.259.282-.259Z" style="fill-rule:evenodd;stroke:none;fill:#1f2226;fill-opacity:1"/><path d="M13.209 5h58.583C77.956 5 83 9.979 83 16.066v142.869C83 165.021 77.956 170 71.792 170H13.209C7.044 170 2 165.021 2 158.935V16.066C2 9.979 7.044 5 13.209 5Z" style="fill-rule:evenodd;stroke:none;fill:#959ca4;fill-opacity:1"/><path d="M27.5 17c1.377 0 2.5-1.123 2.5-2.5S28.877 12 27.5 12a2.505 2.505 0 0 0-2.5 2.5c0 1.377 1.123 2.5 2.5 2.5ZM33.603 13h14.794c.882 0 1.603.768 1.603 1.706v.587c0 .939-.721 1.707-1.603 1.707H33.603C32.722 17 32 16.232 32 15.293v-.587c0-.938.722-1.706 1.603-1.706ZM6 151h72V24H6v127ZM43 165c3.855 0 7-2.92 7-6.5s-3.145-6.5-7-6.5-7 2.92-7 6.5 3.145 6.5 7 6.5Z" style="fill-rule:evenodd;stroke:none;fill:#fff;fill-opacity:1"/></g><path d="M257.474 30.894h161.051v100.207H257.474ZM253.871 137H422.13c3.239 0 5.87-2.724 5.87-6.081V31.081c0-3.357-2.631-6.081-5.87-6.081H253.871c-3.245 0-5.871 2.724-5.871 6.081v99.838c0 3.357 2.626 6.081 5.871 6.081ZM354.486 143a7.9 7.9 0 0 1-.336.378c-2.562 2.714-6.102 4.393-10.014 4.393h-14.277c-4.087 0-7.768-1.833-10.345-4.771H236c0 8.282 6.338 15 14.156 15h173.682c3.912 0 7.452-1.678 10.014-4.391C436.416 150.893 438 147.144 438 143h-83.514Z" style="fill-rule:nonzero;stroke:none;fill:#2c3a4a;fill-opacity:.5"/><rect width="55" height="10" x="141" y="70" rx="5" ry="5" style="fill:#8ff0a4;fill-opacity:1"/><rect width="41" height="10" x="159" y="86" rx="5" ry="5" style="fill:#f59e0b;fill-opacity:1"/><rect width="55" height="10" x="141" y="103" rx="5" ry="5" style="fill:#8ff0a4;fill-opacity:1"/><g xmlns:xlink="http://www.w3.org/1999/xlink" xml:space="preserve" style="fill:#000"><path d="M168.6 27.5c1.325 0 2.4 1.007 2.4 2.25v6c0 1.243-1.075 2.25-2.4 2.25h-7.2c-1.325 0-2.4-1.007-2.4-2.25v-6c0-1.243 1.075-2.25 2.4-2.25v-1.125c0-1.864 1.612-3.375 3.6-3.375s3.6 1.511 3.6 3.375V27.5Zm-7.2.75c-.884 0-1.6.672-1.6 1.5v6c0 .828.716 1.5 1.6 1.5h7.2c.884 0 1.6-.672 1.6-1.5v-6c0-.828-.716-1.5-1.6-1.5h-7.2Zm6.4-.75v-1.125c0-1.45-1.254-2.625-2.8-2.625-1.546 0-2.8 1.175-2.8 2.625V27.5h5.6ZM165 32c-.663 0-1.2.504-1.2 1.125s.537 1.125 1.2 1.125c.663 0 1.2-.504 1.2-1.125S165.663 32 165 32Zm0-.75c1.105 0 2 .839 2 1.875S166.105 35 165 35s-2-.839-2-1.875.895-1.875 2-1.875Z" style="fill:#22c55e;fill-opacity:1"/><path stroke-linejoin="round" d="M168.6 27.5c1.325 0 2.4 1.007 2.4 2.25v6c0 1.243-1.075 2.25-2.4 2.25h-7.2c-1.325 0-2.4-1.007-2.4-2.25v-6c0-1.243 1.075-2.25 2.4-2.25v-1.125c0-1.864 1.612-3.375 3.6-3.375s3.6 1.511 3.6 3.375V27.5Zm-7.2.75c-.884 0-1.6.672-1.6 1.5v6c0 .828.716 1.5 1.6 1.5h7.2c.884 0 1.6-.672 1.6-1.5v-6c0-.828-.716-1.5-1.6-1.5h-7.2Zm6.4-.75v-1.125c0-1.45-1.254-2.625-2.8-2.625-1.546 0-2.8 1.175-2.8 2.625V27.5h5.6ZM165 32c-.663 0-1.2.504-1.2 1.125s.537 1.125 1.2 1.125c.663 0 1.2-.504 1.2-1.125S165.663 32 165 32Zm0-.75c1.105 0 2 .839 2 1.875S166.105 35 165 35s-2-.839-2-1.875.895-1.875 2-1.875Z" class="stroke-shape" style="fill:none;stroke-width:1;stroke:#22c55e;stroke-opacity:1"/></g><g style="fill:#000"><path xmlns:xlink="http://www.w3.org/1999/xlink" xml:space="preserve" d="M172.667 23.105c-3.756 0-6.8-3.039-6.8-6.789V7.263H156.8a4.53 4.53 0 0 0-4.533 4.526v29.422a4.53 4.53 0 0 0 4.533 4.526h20.4a4.53 4.53 0 0 0 4.533-4.526V23.105h-9.066Zm-4.534-6.789a4.53 4.53 0 0 0 4.534 4.526h8.127L168.133 8.201v8.115ZM156.8 5h11.333L184 20.842v20.369c0 3.749-3.044 6.789-6.8 6.789h-20.4c-3.756 0-6.8-3.04-6.8-6.789V11.789C150 8.04 153.044 5 156.8 5Z" style="fill:#22c55e;fill-opacity:1"/></g><g style="fill:#000"><path xmlns:xlink="http://www.w3.org/1999/xlink" xml:space="preserve" d="M307.667 81.421c-3.425 0-6.2-2.757-6.2-6.158v-8.21H293.2c-2.283 0-4.133 1.838-4.133 4.105v26.684c0 2.267 1.85 4.105 4.133 4.105h18.6c2.283 0 4.133-1.838 4.133-4.105V81.421h-8.266Zm-4.134-6.158c0 2.267 1.851 4.105 4.134 4.105h7.41l-11.544-11.465v7.36ZM293.2 65h10.333L318 79.368v18.474c0 3.401-2.776 6.158-6.2 6.158h-18.6c-3.424 0-6.2-2.757-6.2-6.158V71.158c0-3.401 2.776-6.158 6.2-6.158Z" style="fill:#22c55e;fill-opacity:1"/></g><g style="fill:#000"><path xmlns:xlink="http://www.w3.org/1999/xlink" xml:space="preserve" d="M49.706 82.762c-3.411 0-6.177-2.814-6.177-6.286v-8.381h-8.235c-2.274 0-4.118 1.876-4.118 4.191v27.238c0 2.314 1.844 4.19 4.118 4.19h18.53c2.274 0 4.117-1.876 4.117-4.19V82.762h-8.235Zm-4.118-6.286c0 2.315 1.844 4.191 4.118 4.191h7.382l-11.5-11.704v7.513ZM35.294 66h10.294L60 80.667v18.857c0 3.471-2.765 6.286-6.176 6.286h-18.53c-3.411 0-6.176-2.815-6.176-6.286V72.286c0-3.472 2.765-6.286 6.176-6.286Zm0 44C29.609 110 25 105.31 25 99.524V74.381h2.059v25.143c0 4.628 3.687 8.381 8.235 8.381h16.471V110H35.294Z" style="fill:#22c55e;fill-opacity:1"/></g><g style="fill:#000"><path xmlns:xlink="http://www.w3.org/1999/xlink" xml:space="preserve" d="M377.706 78.762c-3.411 0-6.177-2.814-6.177-6.286v-8.381h-8.235c-2.274 0-4.118 1.876-4.118 4.191v27.238c0 2.314 1.844 4.19 4.118 4.19h18.53c2.274 0 4.117-1.876 4.117-4.19V78.762h-8.235Zm-4.118-6.286c0 2.315 1.844 4.191 4.118 4.191h7.382l-11.5-11.704v7.513ZM363.294 62h10.294L388 76.667v18.857c0 3.471-2.765 6.286-6.176 6.286h-18.53c-3.411 0-6.176-2.815-6.176-6.286V68.286c0-3.472 2.765-6.286 6.176-6.286Zm0 44C357.609 106 353 101.31 353 95.524V70.381h2.059v25.143c0 4.628 3.687 8.381 8.235 8.381h16.471V106h-16.471Z" style="fill:#22c55e;fill-opacity:1"/></g></g></g></svg>